<svg width="44" height="32" viewBox="0 0 44 32" fill="none" xmlns="http://www.w3.org/2000/svg">
<path d="M38 4C38 4 33.414 0.41 28 0L27.512 0.977C32.406 2.176 34.652 3.89 37 6C32.953 3.934 28.96 2 22 2C15.04 2 11.047 3.934 7 6C9.348 3.89 12.02 1.984 16.488 0.977L16 0C10.32 0.535 6 4 6 4C6 4 0.879 11.426 0 26C5.16 31.953 13 32 13 32L14.64 29.816C11.856 28.848 8.716 27.121 6 24C9.238 26.45 14.125 29 22 29C29.875 29 34.762 26.45 38 24C35.285 27.121 32.145 28.848 29.36 29.816L31 32C31 32 38.84 31.953 44 26C43.121 11.426 38 4 38 4ZM15.5 22C13.566 22 12 20.21 12 18C12 15.79 13.566 14 15.5 14C17.434 14 19 15.79 19 18C19 20.21 17.434 22 15.5 22ZM28.5 22C26.566 22 25 20.21 25 18C25 15.79 26.566 14 28.5 14C30.434 14 32 15.79 32 18C32 20.21 30.434 22 28.5 22Z" fill="white"/>
</svg>
